<?xml version="1.0" standalone="no"?>
<!DOCTYPE svg PUBLIC "-//W3C//DTD SVG 20010904//EN"
 "http://www.w3.org/TR/2001/REC-SVG-20010904/DTD/svg10.dtd">
<svg version="1.0" xmlns="http://www.w3.org/2000/svg"
 width="397.000000pt" height="397.000000pt" viewBox="0 0 397.000000 397.000000"
 preserveAspectRatio="xMidYMid meet">

<g transform="translate(0.000000,397.000000) scale(0.100000,-0.100000)"
fill="#000000" stroke="none">
<path d="M1550 3050 c-44 -12 -163 -77 -236 -128 -139 -99 -272 -250 -346
-397 -32 -62 -81 -186 -76 -190 2 -1 21 -12 44 -23 48 -24 110 -90 130 -138
17 -40 18 -138 3 -185 -7 -19 -44 -79 -83 -133 -93 -131 -95 -135 -96 -179 0
-67 70 -109 130 -77 34 18 871 1226 863 1246 -2 6 -68 51 -146 99 -78 48 -146
93 -152 100 -6 7 -20 9 -35 5z"/>
<path d="M1946 2648 c-43 -62 -197 -284 -342 -493 -361 -521 -478 -675 -530
-700 -58 -28 -82 -52 -95 -95 -29 -97 78 -168 171 -114 21 13 125 150 307 404
151 212 292 402 312 423 68 72 193 127 290 127 162 0 331 -110 402 -263 31
-66 34 -79 33 -167 0 -71 -5 -108 -20 -145 -19 -48 -129 -216 -220 -335 -22
-30 -80 -112 -128 -183 -71 -105 -86 -134 -86 -166 0 -49 30 -88 75 -97 49 -9
83 2 120 39 26 26 33 43 40 92 4 33 13 75 21 93 7 18 155 236 328 485 310 447
402 585 395 591 -2 1 -28 17 -57 35 l-53 32 -32 -27 c-127 -108 -303 -75 -380
70 -24 46 -29 155 -9 192 11 21 3 28 -146 120 -86 54 -190 119 -230 146 -41
26 -77 48 -80 48 -4 0 -43 -51 -86 -112z"/>
<path d="M2660 2410 c-30 -30 -27 -83 6 -109 35 -28 69 -26 99 4 30 30 32 64
4 99 -26 33 -79 36 -109 6z"/>
<path d="M846 2124 c-3 -26 -6 -78 -6 -115 0 -60 2 -69 18 -69 39 0 88 90 77
141 -8 34 -51 89 -70 89 -7 0 -15 -19 -19 -46z"/>
<path d="M1955 1996 c-27 -13 -64 -39 -81 -57 -25 -27 -277 -378 -601 -835
-50 -71 -55 -109 -19 -150 30 -35 84 -38 118 -7 13 12 160 215 328 452 213
300 313 434 332 442 32 13 57 6 92 -26 53 -49 50 -56 -240 -463 -231 -324
-266 -378 -266 -410 0 -68 89 -109 140 -64 23 19 522 724 548 774 12 22 18 56
18 103 0 61 -4 78 -30 125 -69 122 -219 173 -339 116z"/>
<path d="M3038 1883 c-16 -19 -506 -720 -552 -789 -22 -34 -25 -46 -17 -67 21
-54 63 -43 201 54 194 137 358 366 419 589 34 120 43 187 31 210 -13 25 -61
27 -82 3z"/>
</g>
</svg>
