<?xml version="1.0" standalone="no"?>
<!DOCTYPE svg PUBLIC "-//W3C//DTD SVG 20010904//EN"
 "http://www.w3.org/TR/2001/REC-SVG-20010904/DTD/svg10.dtd">
<svg version="1.0" xmlns="http://www.w3.org/2000/svg"
 width="800.000000pt" height="800.000000pt" viewBox="0 0 800.000000 800.000000"
 preserveAspectRatio="xMidYMid meet">

<g transform="translate(0.000000,800.000000) scale(0.100000,-0.100000)"
fill="#000000" stroke="none">
<path d="M2380 5819 c-279 -22 -440 -149 -507 -399 -14 -50 -18 -105 -18 -240
0 -204 15 -274 90 -419 68 -131 158 -242 384 -475 115 -118 231 -245 260 -283
96 -126 131 -229 131 -384 0 -225 -84 -339 -250 -339 -108 0 -174 43 -212 139
-19 49 -22 81 -26 251 -4 200 -9 226 -51 274 -64 73 -218 73 -282 0 -46 -53
-49 -72 -49 -321 0 -260 8 -314 57 -405 52 -95 165 -176 299 -213 90 -25 319
-31 422 -12 150 29 269 100 337 203 95 142 135 387 105 634 -29 233 -103 348
-494 767 -288 308 -360 448 -343 663 12 136 41 198 117 240 90 49 237 25 288
-47 38 -55 45 -95 49 -278 4 -154 8 -185 25 -215 74 -134 287 -110 328 38 13
49 13 339 -1 439 -21 156 -90 251 -230 318 -118 57 -262 78 -429 64z"/>
<path d="M4143 5819 c-81 -10 -171 -57 -228 -121 l-43 -48 -7 32 c-10 50 -49
103 -88 121 -44 21 -129 22 -167 2 -16 -8 -42 -32 -57 -52 l-28 -36 -3 -1286
c-1 -707 0 -1301 3 -1319 7 -40 59 -101 102 -118 84 -36 188 -2 231 74 l22 40
0 1125 c0 781 3 1142 11 1177 14 66 57 116 112 131 80 21 153 -16 175 -89 9
-29 12 -336 12 -1186 0 -1247 -3 -1183 56 -1238 70 -65 178 -65 248 0 59 56
56 -15 56 1299 0 1018 -2 1216 -15 1262 -46 174 -184 254 -392 230z"/>
<path d="M4994 5821 c-111 -27 -159 -165 -90 -255 43 -57 75 -66 245 -66 l151
0 0 -1183 0 -1183 25 -50 c37 -73 81 -99 170 -99 89 0 133 26 170 99 l25 50 0
1183 0 1183 148 0 c133 0 151 2 187 23 45 25 85 92 85 141 0 47 -37 113 -78
138 l-37 23 -485 2 c-267 1 -499 -2 -516 -6z"/>
<path d="M1847 2473 c-4 -3 -7 -66 -7 -140 l0 -133 1360 0 1360 0 0 140 0 140
-1353 0 c-745 0 -1357 -3 -1360 -7z"/>
</g>
</svg>
